<svg width="100" height="25" viewBox="0 0 100 25" fill="none" xmlns="http://www.w3.org/2000/svg">
<path d="M2.45081 23.1843H23.8258V1.80933H2.45081V23.1843ZM19.7117 10.4402H15.195V5.92349H19.7117V10.4402ZM6.56414 5.92349H11.0833V14.5535H19.7117V19.0702H6.56414V5.92349ZM37.745 1.80933C35.6312 1.80933 33.5648 2.43614 31.8073 3.6105C30.0497 4.78486 28.6799 6.45402 27.871 8.40691C27.0621 10.3598 26.8505 12.5087 27.2628 14.5818C27.6752 16.655 28.6931 18.5593 30.1877 20.054C31.6824 21.5487 33.5867 22.5666 35.6599 22.979C37.7332 23.3913 39.882 23.1797 41.8349 22.3708C43.7878 21.5619 45.4569 20.1921 46.6313 18.4345C47.8057 16.6769 48.4325 14.6106 48.4325 12.4968C48.4292 9.66333 47.3021 6.94686 45.2985 4.94328C43.2949 2.9397 40.5785 1.81263 37.745 1.80933ZM37.745 19.0702C36.4449 19.0702 35.174 18.6847 34.093 17.9623C33.0121 17.2401 32.1695 16.2135 31.672 15.0123C31.1745 13.8112 31.0443 12.4896 31.2979 11.2144C31.5516 9.93933 32.1777 8.76808 33.0969 7.84878C34.0162 6.92948 35.1875 6.30343 36.4626 6.0498C37.7377 5.79617 39.0593 5.92634 40.2605 6.42386C41.4616 6.92138 42.4882 7.7639 43.2105 8.84491C43.9328 9.92583 44.3183 11.1967 44.3183 12.4968C44.3157 14.2394 43.6222 15.9098 42.3901 17.142C41.1579 18.3742 39.4875 19.0675 37.745 19.0702ZM86.6775 1.80933C84.5633 1.80917 82.4972 2.43583 80.7396 3.61009C78.9819 4.78435 77.612 6.45345 76.8029 8.40633C75.9939 10.3592 75.7821 12.5082 76.1944 14.5813C76.6067 16.6546 77.6245 18.559 79.1192 20.0537C80.6137 21.5485 82.5181 22.5665 84.5917 22.9789C86.6642 23.3913 88.8133 23.1797 90.7667 22.3709C92.7192 21.562 94.3883 20.1922 95.5625 18.4346C96.7375 16.677 97.3642 14.6107 97.3642 12.4968C97.3608 9.66349 96.2342 6.94713 94.2308 4.94358C92.2275 2.94002 89.5108 1.81286 86.6775 1.80933ZM86.6775 19.0702C85.3775 19.0703 84.1067 18.6849 83.0253 17.9627C81.9442 17.2406 81.1016 16.214 80.6039 15.0129C80.1062 13.8118 79.976 12.4901 80.2295 11.2149C80.4831 9.93983 81.1091 8.76849 82.0283 7.84908C82.9476 6.92969 84.1192 6.30356 85.3942 6.04986C86.6692 5.79616 87.9908 5.92628 89.1917 6.42378C90.3933 6.92128 91.42 7.76379 92.1425 8.84483C92.8642 9.92583 93.25 11.1967 93.25 12.4968C93.2475 14.2392 92.5542 15.9095 91.3217 17.1417C90.09 18.3738 88.42 19.0673 86.6775 19.0702ZM62.2108 1.80933C60.097 1.80933 58.0307 2.43614 56.2732 3.6105C54.5156 4.78486 53.1457 6.45402 52.3368 8.40691C51.5279 10.3598 51.3163 12.5087 51.7287 14.5818C52.1411 16.655 53.1589 18.5593 54.6536 20.054C56.1482 21.5487 58.0526 22.5666 60.1257 22.979C62.1989 23.3913 64.3478 23.1797 66.3007 22.3708C68.2537 21.5619 69.9227 20.1921 71.0972 18.4345C72.2715 16.6769 72.8983 14.6106 72.8983 12.4968C72.895 9.66333 71.7679 6.94686 69.7643 4.94328C67.7607 2.9397 65.0443 1.81263 62.2108 1.80933ZM62.2108 19.0702C60.9995 19.0707 59.8117 18.7367 58.7782 18.1047C57.7449 17.4728 56.9062 16.5677 56.3547 15.4892C55.8034 14.4107 55.5607 13.2008 55.6535 11.9932C55.7463 10.7854 56.171 9.62683 56.8807 8.64524C57.5905 7.66371 58.5577 6.89733 59.6754 6.43075C60.7932 5.96416 62.0182 5.81551 63.2152 6.00119C64.4122 6.18688 65.5345 6.69969 66.4584 7.48301C67.3823 8.26633 68.0718 9.28974 68.4508 10.4402H62.2108V14.5535H68.4508C68.0167 15.8662 67.1804 17.0091 66.0603 17.8197C64.9403 18.6305 63.5935 19.0679 62.2108 19.0702Z" fill="black"/>
</svg>
